<svg id="briefing" xmlns="http://www.w3.org/2000/svg" width="58.875" height="65.124" viewBox="0 0 58.875 65.124">
  <path id="Trazado_1590" data-name="Trazado 1590" d="M40.306,16.188a3.571,3.571,0,0,0-4.785,0,2.982,2.982,0,0,0,0,4.44l5.764,5.349a3.571,3.571,0,0,0,4.785,0L58.384,14.549a2.983,2.983,0,0,0,0-4.44,3.571,3.571,0,0,0-4.785,0l-1.358,1.26a13.4,13.4,0,0,0-3.28-1.7V8.243A3.272,3.272,0,0,0,45.579,5.1H34.97V4.013A4.182,4.182,0,0,0,30.646,0H18.815a4.182,4.182,0,0,0-4.324,4.013V8.546a2.323,2.323,0,0,0,2.4,2.229H32.568a2.323,2.323,0,0,0,2.4-2.229V7.014H45.578A1.281,1.281,0,0,1,46.9,8.243v.88a14.056,14.056,0,0,0-2.592-.243c-7.211,0-13.077,5.445-13.077,12.137S37.1,33.153,44.31,33.153a14.15,14.15,0,0,0,2.592-.239V61.985a1.281,1.281,0,0,1-1.324,1.229H3.883a1.28,1.28,0,0,1-1.324-1.229V8.243A1.281,1.281,0,0,1,3.883,7.014h6.844a1,1,0,0,0,1.03-.955,1,1,0,0,0-1.03-.955H3.883A3.272,3.272,0,0,0,.5,8.243V61.985a3.272,3.272,0,0,0,3.383,3.14h41.7a3.272,3.272,0,0,0,3.383-3.14V32.361a13.223,13.223,0,0,0,4.445-2.624,11.7,11.7,0,0,0,3.974-8.3.989.989,0,0,0-.994-.988,1,1,0,0,0-1.064.922,10.317,10.317,0,0,1-7.626,9.38,1.032,1.032,0,0,0-.172.052,11.94,11.94,0,0,1-3.214.436c-6.075,0-11.018-4.587-11.018-10.226S38.235,10.79,44.31,10.79a11.584,11.584,0,0,1,6.46,1.943l-7.094,6.584ZM32.911,8.546a.332.332,0,0,1-.343.318H16.894a.332.332,0,0,1-.343-.318V4.013a2.19,2.19,0,0,1,2.265-2.1H30.646a2.19,2.19,0,0,1,2.265,2.1ZM55.055,11.46a1.4,1.4,0,0,1,1.873,0,1.169,1.169,0,0,1,0,1.738L44.613,24.627a1.4,1.4,0,0,1-1.873,0l-5.764-5.349a1.167,1.167,0,0,1,0-1.738,1.4,1.4,0,0,1,1.873,0l4.1,3.8a1.086,1.086,0,0,0,1.456,0Zm0,0" transform="translate(-0.5)" fill="#9e39ff"/>
  <path id="Trazado_1591" data-name="Trazado 1591" d="M119.431,188.547h-12.5a1.026,1.026,0,0,0,0,2.052h12.5a1.026,1.026,0,1,0,0-2.052Zm0,0" transform="translate(-91.441 -164.618)" fill="#9e39ff"/>
  <path id="Trazado_1592" data-name="Trazado 1592" d="M48.95,111.012h-6.9a1.026,1.026,0,1,0,0,2.052h6.9a1.026,1.026,0,1,0,0-2.052Zm0,0" transform="translate(-35.484 -96.923)" fill="#9e39ff"/>
  <path id="Trazado_1593" data-name="Trazado 1593" d="M106.928,225.446h12.5a1.026,1.026,0,1,0,0-2.052h-12.5a1.026,1.026,0,0,0,0,2.052Zm0,0" transform="translate(-91.441 -195.043)" fill="#9e39ff"/>
  <path id="Trazado_1594" data-name="Trazado 1594" d="M123.75,279.648H106.928a1.026,1.026,0,0,0,0,2.052H123.75a1.026,1.026,0,0,0,0-2.052Zm0,0" transform="translate(-91.434 -244.158)" fill="#9e39ff"/>
  <path id="Trazado_1595" data-name="Trazado 1595" d="M106.928,316.548h8.411a1.026,1.026,0,0,0,0-2.052h-8.411a1.026,1.026,0,0,0,0,2.052Zm0,0" transform="translate(-91.446 -274.583)" fill="#9e39ff"/>
  <path id="Trazado_1596" data-name="Trazado 1596" d="M106.928,372.9h12.5a1.026,1.026,0,1,0,0-2.052h-12.5a1.026,1.026,0,0,0,0,2.052Zm0,0" transform="translate(-91.441 -323.783)" fill="#9e39ff"/>
  <path id="Trazado_1597" data-name="Trazado 1597" d="M106.928,407.747H123.75a1.026,1.026,0,1,0,0-2.052H106.928a1.026,1.026,0,0,0,0,2.052Zm0,0" transform="translate(-91.434 -354.208)" fill="#9e39ff"/>
  <path id="Trazado_1598" data-name="Trazado 1598" d="M38.277,182.035a4.145,4.145,0,1,0,4.145,4.145A4.149,4.149,0,0,0,38.277,182.035Zm0,6.237a2.092,2.092,0,1,1,2.092-2.092A2.095,2.095,0,0,1,38.277,188.272Zm0,0" transform="translate(-29.538 -159.111)" fill="#9e39ff"/>
  <path id="Trazado_1599" data-name="Trazado 1599" d="M38.277,274.242a4.145,4.145,0,1,0,4.145,4.145A4.149,4.149,0,0,0,38.277,274.242Zm0,6.237a2.093,2.093,0,1,1,2.092-2.092A2.095,2.095,0,0,1,38.277,280.48Zm0,0" transform="translate(-29.538 -239.707)" fill="#9e39ff"/>
  <path id="Trazado_1600" data-name="Trazado 1600" d="M38.277,365.441a4.145,4.145,0,1,0,4.145,4.145A4.149,4.149,0,0,0,38.277,365.441Zm0,6.237a2.092,2.092,0,1,1,2.092-2.092A2.095,2.095,0,0,1,38.277,371.678Zm0,0" transform="translate(-29.538 -319.421)" fill="#9e39ff"/>
</svg>
