<svg id="man" xmlns="http://www.w3.org/2000/svg" width="42.119" height="53.226" viewBox="0 0 42.119 53.226">
  <path id="man-2" data-name="man" d="M120.152,47.1v5.24a1.053,1.053,0,0,1-2.08,0V47.1c0-4.08-3.871-7.381-8.654-7.381a6.686,6.686,0,0,1-5.494-2.631.816.816,0,0,1,.347-1.219,1.147,1.147,0,0,1,1.429.3,4.523,4.523,0,0,0,3.717,1.78C115.351,37.945,120.152,42.04,120.152,47.1ZM102,38.209a.9.9,0,0,1-.795,1.056,11.371,11.371,0,0,1-7.737-1.291,6.974,6.974,0,0,1-4.7,1.746c-4.783,0-8.654,3.3-8.654,7.381v5.24a1.053,1.053,0,0,1-2.08,0V47.1c0-5.06,4.8-9.155,10.734-9.155,2.4,0,4.346-1.649,4.346-3.7v-.234c-4.539-1.851-7.726-5.741-7.92-10.272a3.794,3.794,0,0,1-3.26-3.506v-4.6a14.849,14.849,0,0,1,5.154-11.85C93.038-1.1,102.581-.793,109.6,2.088a.827.827,0,0,1,.22,1.477,14.148,14.148,0,0,1,8.59,5.271.887.887,0,0,1,.239.7.844.844,0,0,1-.3.563,5.389,5.389,0,0,0-1.965,4.091v6.05a1.053,1.053,0,0,1-2.08,0v-6.05a6.906,6.906,0,0,1,2.02-4.822A12.533,12.533,0,0,0,107.7,5.048l-1.828-.167a.867.867,0,0,1-.285-1.7l.831-.292C95.591-.333,84.013,3.244,84.013,15.629v4.608a1.825,1.825,0,0,0,1.17,1.623V16.11c0-3.424,3.266-6.209,7.28-6.209h13.26c4.014,0,7.28,2.785,7.28,6.209v7.263c0,7.714-8.838,13.573-17.832,11.315a4.8,4.8,0,0,1-.544,1.811,8.994,8.994,0,0,0,6.14,1.033A1.052,1.052,0,0,1,102,38.209Zm-2.911-4.815c6.523,0,11.83-4.526,11.83-10.09v-7.2c0-2.445-2.333-4.435-5.2-4.435H92.463c-2.867,0-5.2,1.99-5.2,4.435V23.3C87.263,28.868,92.57,33.394,99.093,33.394Zm10.53,15.287H106.5a.9.9,0,1,0,0,1.774h3.12a.9.9,0,1,0,0-1.774Z" transform="translate(-78.033 0)" fill="#9e39ff"/>
</svg>
