<svg xmlns="http://www.w3.org/2000/svg" width="80.904" height="52.5" viewBox="0 0 80.904 52.5">
  <defs>
    <style>
      .cls-1, .cls-2 {
        fill: none;
        stroke: #9e39ff;
        stroke-width: 2.5px;
      }

      .cls-1, .cls-2, .cls-3 {
        stroke-miterlimit: 10;
      }

      .cls-2 {
        stroke-linecap: round;
        stroke-linejoin: round;
      }

      .cls-3 {
        fill: #9e39ff;
        stroke: #c1dfdb;
      }
    </style>
  </defs>
  <g id="check" transform="translate(1.075 1.25)">
    <g id="Group_2" data-name="Group 2" transform="translate(13.902)">
      <circle id="Oval" class="cls-1" cx="25" cy="25" r="25"/>
      <path id="Path_10" data-name="Path 10" class="cls-2" d="M0,10l10.1,8.539L22.463,0" transform="matrix(0.985, 0.174, -0.174, 0.985, 15.679, 13.191)"/>
    </g>
    <path id="Star_Copy_10" data-name="Star Copy 10" class="cls-3" d="M3,4.5l-1.763.927.337-1.964L.147,2.073l1.971-.286L3,0l.882,1.786,1.971.286L4.427,3.464l.337,1.964Z" transform="translate(72.902 12)"/>
    <path id="Star_Copy_10-2" data-name="Star Copy 10" class="cls-3" d="M3,4.5l-1.763.927.337-1.964L.147,2.073l1.971-.286L3,0l.882,1.786,1.971.286L4.427,3.464l.337,1.964Z" transform="translate(3.902 35)"/>
    <path id="Star_Copy_10-3" data-name="Star Copy 10" class="cls-3" d="M2,3,.824,3.618l.225-1.309L.1,1.382l1.314-.191L2,0l.588,1.191L3.9,1.382l-.951.927.225,1.309Z" transform="translate(69.902 36)"/>
    <path id="Star_Copy_10-4" data-name="Star Copy 10" class="cls-3" d="M2,3,.824,3.618l.225-1.309L.1,1.382l1.314-.191L2,0l.588,1.191L3.9,1.382l-.951.927.225,1.309Z" transform="translate(-0.098 13)"/>
  </g>
</svg>
